<mxfile host="app.diagrams.net" modified="2022-11-19T02:08:38.067Z" agent="5.0 (Windows NT 10.0; Win64; x64) AppleWebKit/537.36 (KHTML, like Gecko) Chrome/107.0.0.0 Safari/537.36" etag="kObM396UXV_LQmZETeg0" version="20.5.3" type="github" pages="2">
  <diagram id="jGWYWBmw-iRRK0AfGY73" name="overview">
    <mxGraphModel dx="572" dy="738" grid="0" gridSize="10" guides="1" tooltips="1" connect="1" arrows="1" fold="1" page="1" pageScale="1" pageWidth="850" pageHeight="1100" math="0" shadow="0">
      <root>
        <mxCell id="0" />
        <mxCell id="1" parent="0" />
        <mxCell id="6lcVnLO9hiHBPe1DEjGH-26" value="" style="group;align=right;verticalAlign=top;" parent="1" vertex="1" connectable="0">
          <mxGeometry x="855" y="100" width="900" height="620" as="geometry" />
        </mxCell>
        <mxCell id="6lcVnLO9hiHBPe1DEjGH-28" value="&lt;font style=&quot;font-size: 14px;&quot; color=&quot;#ff3333&quot;&gt;座舱OS视窗引擎&lt;/font&gt;" style="rounded=0;whiteSpace=wrap;html=1;labelBackgroundColor=none;verticalAlign=top;fillColor=#CCCCCC;fontStyle=1;strokeColor=none;align=left;" parent="6lcVnLO9hiHBPe1DEjGH-26" vertex="1">
          <mxGeometry x="340" y="220" width="560" height="267" as="geometry" />
        </mxCell>
        <mxCell id="RZkui5LOCHVIBUMoWQ-c-4" value="" style="rounded=1;whiteSpace=wrap;html=1;fontSize=20;fillColor=none;strokeColor=#FF3333;dashed=1;strokeWidth=3;glass=1;" parent="6lcVnLO9hiHBPe1DEjGH-26" vertex="1">
          <mxGeometry x="328" y="220" width="565" height="260" as="geometry" />
        </mxCell>
        <mxCell id="6lcVnLO9hiHBPe1DEjGH-34" value="HISI SoC" style="rounded=0;whiteSpace=wrap;html=1;labelBackgroundColor=none;verticalAlign=top;fillColor=#CCCCCC;fontStyle=1;strokeColor=none;align=left;spacingBottom=10;spacingRight=10;spacingLeft=10;" parent="6lcVnLO9hiHBPe1DEjGH-26" vertex="1">
          <mxGeometry x="340" y="500" width="560" height="120" as="geometry" />
        </mxCell>
        <mxCell id="6lcVnLO9hiHBPe1DEjGH-36" value="Lite DSS" style="rounded=1;whiteSpace=wrap;html=1;labelBackgroundColor=none;fontSize=12;fontColor=#000000;strokeColor=#000000;align=center;verticalAlign=middle;fontStyle=1;fillColor=#FFFFFF;" parent="6lcVnLO9hiHBPe1DEjGH-26" vertex="1">
          <mxGeometry x="380" y="520" width="120" height="30" as="geometry" />
        </mxCell>
        <mxCell id="6lcVnLO9hiHBPe1DEjGH-37" value="GPU 0" style="rounded=1;whiteSpace=wrap;html=1;labelBackgroundColor=none;fontSize=12;fontColor=#000000;strokeColor=#000000;align=center;verticalAlign=middle;fontStyle=1;fillColor=#FFFFFF;" parent="6lcVnLO9hiHBPe1DEjGH-26" vertex="1">
          <mxGeometry x="640" y="520" width="120" height="30" as="geometry" />
        </mxCell>
        <mxCell id="6lcVnLO9hiHBPe1DEjGH-38" value="Car Dashboard Displayer" style="rounded=0;whiteSpace=wrap;html=1;fontStyle=1;fillColor=#FFB366;strokeColor=none;" parent="6lcVnLO9hiHBPe1DEjGH-26" vertex="1">
          <mxGeometry x="380" y="570" width="500" height="30" as="geometry" />
        </mxCell>
        <mxCell id="6lcVnLO9hiHBPe1DEjGH-39" value="" style="endArrow=classic;html=1;fontSize=12;fontColor=#000000;strokeWidth=1;fillColor=#FFE6CC;strokeColor=#666666;" parent="6lcVnLO9hiHBPe1DEjGH-26" source="6lcVnLO9hiHBPe1DEjGH-37" target="6lcVnLO9hiHBPe1DEjGH-36" edge="1">
          <mxGeometry x="-40" width="50" height="50" as="geometry">
            <mxPoint x="220" y="640" as="sourcePoint" />
            <mxPoint x="270" y="590" as="targetPoint" />
          </mxGeometry>
        </mxCell>
        <mxCell id="6lcVnLO9hiHBPe1DEjGH-40" value="" style="endArrow=classic;html=1;fontSize=12;fontColor=#000000;strokeWidth=1;fillColor=#FFE6CC;strokeColor=#666666;" parent="6lcVnLO9hiHBPe1DEjGH-26" source="6lcVnLO9hiHBPe1DEjGH-36" edge="1">
          <mxGeometry x="-40" width="50" height="50" as="geometry">
            <mxPoint x="550" y="545" as="sourcePoint" />
            <mxPoint x="440" y="570" as="targetPoint" />
          </mxGeometry>
        </mxCell>
        <mxCell id="6lcVnLO9hiHBPe1DEjGH-54" value="Safety Monitor" style="rounded=0;whiteSpace=wrap;html=1;fontStyle=1;verticalAlign=top;spacingTop=0;fillColor=#FFE0DB;" parent="6lcVnLO9hiHBPe1DEjGH-26" vertex="1">
          <mxGeometry x="360" y="374" width="160" height="94" as="geometry" />
        </mxCell>
        <mxCell id="Oussu8R9ffkgmOn_EORa-2" style="edgeStyle=orthogonalEdgeStyle;rounded=0;orthogonalLoop=1;jettySize=auto;html=1;exitX=0.5;exitY=1;exitDx=0;exitDy=0;entryX=0.212;entryY=-0.056;entryDx=0;entryDy=0;entryPerimeter=0;dashed=1;strokeColor=#330000;strokeWidth=1;fontSize=14;fontColor=#FF3333;" parent="6lcVnLO9hiHBPe1DEjGH-26" source="6lcVnLO9hiHBPe1DEjGH-55" target="6lcVnLO9hiHBPe1DEjGH-71" edge="1">
          <mxGeometry relative="1" as="geometry" />
        </mxCell>
        <mxCell id="6lcVnLO9hiHBPe1DEjGH-55" value="Safety Critical &lt;br&gt;Renderer (ASIL-B)" style="rounded=0;whiteSpace=wrap;html=1;labelBackgroundColor=none;fontSize=12;fontColor=#000000;strokeColor=#000000;align=center;verticalAlign=middle;fillColor=#99CCFF;fontStyle=1" parent="6lcVnLO9hiHBPe1DEjGH-26" vertex="1">
          <mxGeometry x="540" y="263" width="150" height="73" as="geometry" />
        </mxCell>
        <mxCell id="Oussu8R9ffkgmOn_EORa-3" style="edgeStyle=orthogonalEdgeStyle;rounded=0;orthogonalLoop=1;jettySize=auto;html=1;exitX=0.5;exitY=1;exitDx=0;exitDy=0;entryX=0.75;entryY=0;entryDx=0;entryDy=0;dashed=1;strokeColor=#330000;strokeWidth=1;fontSize=14;fontColor=#FF3333;" parent="6lcVnLO9hiHBPe1DEjGH-26" source="6lcVnLO9hiHBPe1DEjGH-58" target="6lcVnLO9hiHBPe1DEjGH-71" edge="1">
          <mxGeometry relative="1" as="geometry" />
        </mxCell>
        <mxCell id="6lcVnLO9hiHBPe1DEjGH-58" value="High Performance Combined Renderer" style="rounded=0;whiteSpace=wrap;html=1;labelBackgroundColor=none;fontSize=12;strokeColor=#000000;align=center;verticalAlign=middle;fillColor=#b0e3e6;fontStyle=1;" parent="6lcVnLO9hiHBPe1DEjGH-26" vertex="1">
          <mxGeometry x="720" y="263" width="160" height="73" as="geometry" />
        </mxCell>
        <mxCell id="6lcVnLO9hiHBPe1DEjGH-60" value="Fault Correction" style="rounded=0;whiteSpace=wrap;html=1;labelBackgroundColor=none;fontSize=12;strokeColor=#050505;align=center;verticalAlign=middle;fillColor=#FFBFD7;fontStyle=1" parent="6lcVnLO9hiHBPe1DEjGH-26" vertex="1">
          <mxGeometry x="380" y="403" width="120" height="50" as="geometry" />
        </mxCell>
        <mxCell id="6lcVnLO9hiHBPe1DEjGH-63" value="" style="endArrow=classic;html=1;fontSize=10;fontColor=#000000;strokeColor=#000000;strokeWidth=1;fillColor=#FFE6CC;" parent="6lcVnLO9hiHBPe1DEjGH-26" target="6lcVnLO9hiHBPe1DEjGH-37" edge="1">
          <mxGeometry x="-40" width="50" height="50" as="geometry">
            <mxPoint x="700" y="450" as="sourcePoint" />
            <mxPoint x="470" y="310" as="targetPoint" />
          </mxGeometry>
        </mxCell>
        <mxCell id="6lcVnLO9hiHBPe1DEjGH-64" value="" style="endArrow=classic;html=1;fontSize=10;fontColor=#000000;strokeColor=#000000;strokeWidth=1;fillColor=#FFE6CC;" parent="6lcVnLO9hiHBPe1DEjGH-26" source="h6UdxWJDqXBrwPmcXUrX-32" target="6lcVnLO9hiHBPe1DEjGH-36" edge="1">
          <mxGeometry x="-40" width="50" height="50" as="geometry">
            <mxPoint x="681.818181818182" y="460" as="sourcePoint" />
            <mxPoint x="690" y="530" as="targetPoint" />
            <Array as="points">
              <mxPoint x="660" y="490" />
              <mxPoint x="460" y="490" />
            </Array>
          </mxGeometry>
        </mxCell>
        <mxCell id="GLel3GQEYIvo6IoEr1zy-1" style="edgeStyle=orthogonalEdgeStyle;rounded=0;orthogonalLoop=1;jettySize=auto;html=1;exitX=0.25;exitY=1;exitDx=0;exitDy=0;entryX=0.25;entryY=0;entryDx=0;entryDy=0;dashed=1;strokeColor=#050505;strokeWidth=1;fontSize=14;fontColor=#FF3333;" parent="6lcVnLO9hiHBPe1DEjGH-26" source="6lcVnLO9hiHBPe1DEjGH-71" target="h6UdxWJDqXBrwPmcXUrX-32" edge="1">
          <mxGeometry relative="1" as="geometry" />
        </mxCell>
        <mxCell id="GLel3GQEYIvo6IoEr1zy-2" style="edgeStyle=orthogonalEdgeStyle;rounded=0;orthogonalLoop=1;jettySize=auto;html=1;exitX=0.75;exitY=1;exitDx=0;exitDy=0;entryX=0.75;entryY=0;entryDx=0;entryDy=0;dashed=1;strokeColor=#050505;strokeWidth=1;fontSize=14;fontColor=#FF3333;" parent="6lcVnLO9hiHBPe1DEjGH-26" source="6lcVnLO9hiHBPe1DEjGH-71" target="h6UdxWJDqXBrwPmcXUrX-32" edge="1">
          <mxGeometry relative="1" as="geometry" />
        </mxCell>
        <mxCell id="6lcVnLO9hiHBPe1DEjGH-71" value="&lt;span style=&quot;font-size: 12px; font-weight: 700;&quot;&gt;Unique Rendering Scheduler&lt;/span&gt;" style="rounded=0;whiteSpace=wrap;html=1;labelBackgroundColor=none;fontSize=12;align=center;verticalAlign=middle;fillColor=#008A00;strokeColor=#050505;fontColor=#ffffff;horizontal=1;" parent="6lcVnLO9hiHBPe1DEjGH-26" vertex="1">
          <mxGeometry x="540" y="358.5" width="340" height="45" as="geometry" />
        </mxCell>
        <mxCell id="6lcVnLO9hiHBPe1DEjGH-72" value="" style="endArrow=none;dashed=1;html=1;fontSize=10;fontColor=#000000;strokeWidth=1;fillColor=#FFE6CC;strokeColor=#999999;" parent="6lcVnLO9hiHBPe1DEjGH-26" source="6lcVnLO9hiHBPe1DEjGH-37" edge="1">
          <mxGeometry x="-40" width="50" height="50" as="geometry">
            <mxPoint x="510" y="215" as="sourcePoint" />
            <mxPoint x="870" y="405" as="targetPoint" />
            <Array as="points">
              <mxPoint x="870" y="535" />
              <mxPoint x="870" y="405" />
              <mxPoint x="870" y="380" />
            </Array>
          </mxGeometry>
        </mxCell>
        <mxCell id="09VKakQG7SfrDjjMAFmJ-10" value="" style="endArrow=classic;html=1;rounded=0;exitX=0.5;exitY=1;exitDx=0;exitDy=0;dashed=1;strokeWidth=1;" parent="6lcVnLO9hiHBPe1DEjGH-26" source="6lcVnLO9hiHBPe1DEjGH-60" target="6lcVnLO9hiHBPe1DEjGH-36" edge="1">
          <mxGeometry width="50" height="50" relative="1" as="geometry">
            <mxPoint x="10" y="480" as="sourcePoint" />
            <mxPoint x="60" y="430" as="targetPoint" />
          </mxGeometry>
        </mxCell>
        <mxCell id="QSuAVDpQF5HS8B-ailCi-1" style="edgeStyle=orthogonalEdgeStyle;rounded=0;orthogonalLoop=1;jettySize=auto;html=1;exitX=0.5;exitY=0;exitDx=0;exitDy=0;entryX=0.5;entryY=0;entryDx=0;entryDy=0;dashed=1;strokeColor=#050505;strokeWidth=2;fontSize=10;fontColor=#FFFFFF;" parent="6lcVnLO9hiHBPe1DEjGH-26" source="z_aUk_5v99F4OKsvYZRc-4" target="6lcVnLO9hiHBPe1DEjGH-55" edge="1">
          <mxGeometry relative="1" as="geometry" />
        </mxCell>
        <mxCell id="QSuAVDpQF5HS8B-ailCi-2" style="edgeStyle=orthogonalEdgeStyle;rounded=0;orthogonalLoop=1;jettySize=auto;html=1;exitX=0.5;exitY=0;exitDx=0;exitDy=0;entryX=0.5;entryY=0;entryDx=0;entryDy=0;dashed=1;strokeColor=#050505;strokeWidth=2;fontSize=10;fontColor=#FFFFFF;" parent="6lcVnLO9hiHBPe1DEjGH-26" source="z_aUk_5v99F4OKsvYZRc-4" target="6lcVnLO9hiHBPe1DEjGH-58" edge="1">
          <mxGeometry relative="1" as="geometry" />
        </mxCell>
        <mxCell id="z_aUk_5v99F4OKsvYZRc-4" value="Progressive Loader" style="rounded=0;whiteSpace=wrap;html=1;labelBackgroundColor=none;fontSize=12;strokeColor=#000000;align=center;verticalAlign=middle;fillColor=#dae8fc;fontStyle=1" parent="6lcVnLO9hiHBPe1DEjGH-26" vertex="1">
          <mxGeometry x="360" y="263" width="140" height="73" as="geometry" />
        </mxCell>
        <mxCell id="h6UdxWJDqXBrwPmcXUrX-17" value="" style="edgeStyle=orthogonalEdgeStyle;rounded=0;orthogonalLoop=1;jettySize=auto;html=1;dashed=1;entryX=0;entryY=0.7;entryDx=0;entryDy=0;entryPerimeter=0;strokeWidth=2;" parent="6lcVnLO9hiHBPe1DEjGH-26" source="h6UdxWJDqXBrwPmcXUrX-4" target="h6UdxWJDqXBrwPmcXUrX-8" edge="1">
          <mxGeometry relative="1" as="geometry">
            <mxPoint x="169" y="454" as="targetPoint" />
          </mxGeometry>
        </mxCell>
        <mxCell id="4Q5baHg-JFtU-vZUFb9c-5" style="edgeStyle=orthogonalEdgeStyle;rounded=0;orthogonalLoop=1;jettySize=auto;html=1;exitX=0.5;exitY=0;exitDx=0;exitDy=0;entryX=0.5;entryY=1;entryDx=0;entryDy=0;entryPerimeter=0;dashed=1;strokeColor=#050505;strokeWidth=2;fontSize=10;fontColor=#FFFFFF;" parent="6lcVnLO9hiHBPe1DEjGH-26" source="h6UdxWJDqXBrwPmcXUrX-4" target="4Q5baHg-JFtU-vZUFb9c-4" edge="1">
          <mxGeometry relative="1" as="geometry" />
        </mxCell>
        <mxCell id="h6UdxWJDqXBrwPmcXUrX-4" value="Auto Cluster&amp;amp; Compiling &amp;amp;SC Pipeline Compiling" style="shape=step;perimeter=stepPerimeter;whiteSpace=wrap;html=1;fixedSize=1;fillColor=#fff2cc;strokeColor=#d6b656;" parent="6lcVnLO9hiHBPe1DEjGH-26" vertex="1">
          <mxGeometry x="23" y="351" width="120" height="80" as="geometry" />
        </mxCell>
        <mxCell id="h6UdxWJDqXBrwPmcXUrX-24" style="edgeStyle=orthogonalEdgeStyle;rounded=0;orthogonalLoop=1;jettySize=auto;html=1;exitX=1;exitY=0.5;exitDx=0;exitDy=0;dashed=1;strokeWidth=2;" parent="6lcVnLO9hiHBPe1DEjGH-26" source="h6UdxWJDqXBrwPmcXUrX-5" target="z_aUk_5v99F4OKsvYZRc-7" edge="1">
          <mxGeometry relative="1" as="geometry" />
        </mxCell>
        <mxCell id="h6UdxWJDqXBrwPmcXUrX-5" value="" style="shape=image;html=1;verticalAlign=top;verticalLabelPosition=bottom;labelBackgroundColor=#ffffff;imageAspect=0;aspect=fixed;image=https://cdn1.iconfinder.com/data/icons/DarkGlass_Reworked/128x128/apps/blender.png" parent="6lcVnLO9hiHBPe1DEjGH-26" vertex="1">
          <mxGeometry x="56" y="487" width="60" height="60" as="geometry" />
        </mxCell>
        <mxCell id="h6UdxWJDqXBrwPmcXUrX-16" value="" style="group" parent="6lcVnLO9hiHBPe1DEjGH-26" vertex="1" connectable="0">
          <mxGeometry x="179" y="297" width="110" height="130" as="geometry" />
        </mxCell>
        <mxCell id="h6UdxWJDqXBrwPmcXUrX-8" value="" style="shape=note;whiteSpace=wrap;html=1;backgroundOutline=1;darkOpacity=0.05;fillColor=#e1d5e7;strokeColor=#9673a6;" parent="h6UdxWJDqXBrwPmcXUrX-16" vertex="1">
          <mxGeometry width="80" height="100" as="geometry" />
        </mxCell>
        <mxCell id="h6UdxWJDqXBrwPmcXUrX-9" value="" style="shape=note;whiteSpace=wrap;html=1;backgroundOutline=1;darkOpacity=0.05;fillColor=#e1d5e7;strokeColor=#9673a6;" parent="h6UdxWJDqXBrwPmcXUrX-16" vertex="1">
          <mxGeometry x="10" y="10" width="80" height="100" as="geometry" />
        </mxCell>
        <mxCell id="h6UdxWJDqXBrwPmcXUrX-10" value="" style="shape=note;whiteSpace=wrap;html=1;backgroundOutline=1;darkOpacity=0.05;fillColor=#e1d5e7;strokeColor=#9673a6;" parent="h6UdxWJDqXBrwPmcXUrX-16" vertex="1">
          <mxGeometry x="20" y="20" width="80" height="100" as="geometry" />
        </mxCell>
        <mxCell id="h6UdxWJDqXBrwPmcXUrX-12" value="Cluster based Runtime Binaries" style="shape=note;whiteSpace=wrap;html=1;backgroundOutline=1;darkOpacity=0.05;align=left;fillColor=#e1d5e7;strokeColor=#9673a6;" parent="h6UdxWJDqXBrwPmcXUrX-16" vertex="1">
          <mxGeometry x="30" y="30" width="80" height="100" as="geometry" />
        </mxCell>
        <mxCell id="h6UdxWJDqXBrwPmcXUrX-22" style="edgeStyle=orthogonalEdgeStyle;rounded=0;orthogonalLoop=1;jettySize=auto;html=1;exitX=0;exitY=0;exitDx=80;exitDy=65;exitPerimeter=0;dashed=1;strokeWidth=2;" parent="6lcVnLO9hiHBPe1DEjGH-26" source="h6UdxWJDqXBrwPmcXUrX-12" target="z_aUk_5v99F4OKsvYZRc-4" edge="1">
          <mxGeometry relative="1" as="geometry" />
        </mxCell>
        <mxCell id="h6UdxWJDqXBrwPmcXUrX-1" value="" style="group" parent="6lcVnLO9hiHBPe1DEjGH-26" vertex="1" connectable="0">
          <mxGeometry x="189" y="467" width="100" height="120" as="geometry" />
        </mxCell>
        <mxCell id="z_aUk_5v99F4OKsvYZRc-7" value="" style="shape=note;whiteSpace=wrap;html=1;backgroundOutline=1;darkOpacity=0.05;fillColor=#cce5ff;strokeColor=#36393d;" parent="h6UdxWJDqXBrwPmcXUrX-1" vertex="1">
          <mxGeometry width="80" height="100" as="geometry" />
        </mxCell>
        <mxCell id="z_aUk_5v99F4OKsvYZRc-8" value="" style="shape=note;whiteSpace=wrap;html=1;backgroundOutline=1;darkOpacity=0.05;fillColor=#cce5ff;strokeColor=#36393d;" parent="h6UdxWJDqXBrwPmcXUrX-1" vertex="1">
          <mxGeometry x="10" y="10" width="80" height="100" as="geometry" />
        </mxCell>
        <mxCell id="z_aUk_5v99F4OKsvYZRc-9" value="Models/&lt;br&gt;Shaders/&lt;br&gt;Materials..." style="shape=note;whiteSpace=wrap;html=1;backgroundOutline=1;darkOpacity=0.05;align=left;fillColor=#cce5ff;strokeColor=#36393d;" parent="h6UdxWJDqXBrwPmcXUrX-1" vertex="1">
          <mxGeometry x="20" y="20" width="80" height="100" as="geometry" />
        </mxCell>
        <mxCell id="h6UdxWJDqXBrwPmcXUrX-25" style="edgeStyle=orthogonalEdgeStyle;rounded=0;orthogonalLoop=1;jettySize=auto;html=1;exitX=0;exitY=0;exitDx=25;exitDy=0;exitPerimeter=0;dashed=1;strokeWidth=2;" parent="6lcVnLO9hiHBPe1DEjGH-26" source="z_aUk_5v99F4OKsvYZRc-9" target="h6UdxWJDqXBrwPmcXUrX-4" edge="1">
          <mxGeometry relative="1" as="geometry" />
        </mxCell>
        <mxCell id="h6UdxWJDqXBrwPmcXUrX-27" value="" style="endArrow=none;dashed=1;html=1;rounded=0;strokeWidth=3;strokeColor=#696969;" parent="6lcVnLO9hiHBPe1DEjGH-26" edge="1">
          <mxGeometry width="50" height="50" relative="1" as="geometry">
            <mxPoint x="305" y="610" as="sourcePoint" />
            <mxPoint x="305" y="180" as="targetPoint" />
          </mxGeometry>
        </mxCell>
        <mxCell id="h6UdxWJDqXBrwPmcXUrX-30" value="&lt;font style=&quot;font-size: 20px;&quot;&gt;1&lt;/font&gt;" style="ellipse;whiteSpace=wrap;html=1;aspect=fixed;fillColor=#e51400;strokeColor=#B20000;fontColor=#ffffff;fontSize=16;fontStyle=1" parent="6lcVnLO9hiHBPe1DEjGH-26" vertex="1">
          <mxGeometry x="114" y="314" width="22" height="22" as="geometry" />
        </mxCell>
        <mxCell id="h6UdxWJDqXBrwPmcXUrX-32" value="&lt;span style=&quot;font-weight: 700; text-align: left;&quot;&gt;Safety Compositor (ASIL-B)&lt;/span&gt;" style="rounded=0;whiteSpace=wrap;html=1;labelBackgroundColor=none;fontSize=12;align=center;verticalAlign=middle;fillColor=#ffcc99;strokeColor=#36393d;horizontal=1;" parent="6lcVnLO9hiHBPe1DEjGH-26" vertex="1">
          <mxGeometry x="540" y="423" width="340" height="45" as="geometry" />
        </mxCell>
        <mxCell id="6lcVnLO9hiHBPe1DEjGH-69" value="软纠错" style="text;html=1;strokeColor=none;fillColor=none;align=center;verticalAlign=middle;whiteSpace=wrap;rounded=0;labelBackgroundColor=none;fontSize=12;fontColor=#000000;horizontal=0;" parent="6lcVnLO9hiHBPe1DEjGH-26" vertex="1">
          <mxGeometry x="560" y="420.5" width="20" height="50" as="geometry" />
        </mxCell>
        <mxCell id="z_aUk_5v99F4OKsvYZRc-2" style="edgeStyle=orthogonalEdgeStyle;rounded=0;orthogonalLoop=1;jettySize=auto;html=1;exitX=1;exitY=0.5;exitDx=0;exitDy=0;entryX=0;entryY=0.5;entryDx=0;entryDy=0;dashed=1;" parent="6lcVnLO9hiHBPe1DEjGH-26" source="6lcVnLO9hiHBPe1DEjGH-60" target="6lcVnLO9hiHBPe1DEjGH-69" edge="1">
          <mxGeometry relative="1" as="geometry" />
        </mxCell>
        <mxCell id="6lcVnLO9hiHBPe1DEjGH-47" value="Safety APP" style="rounded=0;whiteSpace=wrap;html=1;fontStyle=1;verticalAlign=middle;spacingTop=0;fillColor=#f5f5f5;strokeColor=#666666;fontColor=#333333;" parent="6lcVnLO9hiHBPe1DEjGH-26" vertex="1">
          <mxGeometry x="340" y="170" width="130" height="40" as="geometry" />
        </mxCell>
        <mxCell id="LvraFmLC8lK72Spu55r9-2" value="AR Hud APP" style="rounded=0;whiteSpace=wrap;html=1;fontStyle=1;verticalAlign=middle;spacingTop=0;fillColor=#f5f5f5;strokeColor=#666666;fontColor=#333333;" parent="6lcVnLO9hiHBPe1DEjGH-26" vertex="1">
          <mxGeometry x="485" y="170" width="130" height="40" as="geometry" />
        </mxCell>
        <mxCell id="LvraFmLC8lK72Spu55r9-3" value="ADAS APP" style="rounded=0;whiteSpace=wrap;html=1;fontStyle=1;verticalAlign=middle;spacingTop=0;fillColor=#f5f5f5;strokeColor=#666666;fontColor=#333333;" parent="6lcVnLO9hiHBPe1DEjGH-26" vertex="1">
          <mxGeometry x="627" y="170" width="130" height="40" as="geometry" />
        </mxCell>
        <mxCell id="LvraFmLC8lK72Spu55r9-4" value="Main APP" style="rounded=0;whiteSpace=wrap;html=1;fontStyle=1;verticalAlign=middle;spacingTop=0;fillColor=#f5f5f5;strokeColor=#666666;fontColor=#333333;" parent="6lcVnLO9hiHBPe1DEjGH-26" vertex="1">
          <mxGeometry x="770" y="170" width="130" height="40" as="geometry" />
        </mxCell>
        <mxCell id="4Q5baHg-JFtU-vZUFb9c-1" value="" style="shape=note;whiteSpace=wrap;html=1;backgroundOutline=1;darkOpacity=0.05;align=left;fillColor=#fad7ac;strokeColor=#b46504;" parent="6lcVnLO9hiHBPe1DEjGH-26" vertex="1">
          <mxGeometry x="24" y="169" width="80" height="100" as="geometry" />
        </mxCell>
        <mxCell id="4Q5baHg-JFtU-vZUFb9c-2" value="" style="shape=note;whiteSpace=wrap;html=1;backgroundOutline=1;darkOpacity=0.05;align=left;fillColor=#fad7ac;strokeColor=#b46504;" parent="6lcVnLO9hiHBPe1DEjGH-26" vertex="1">
          <mxGeometry x="34" y="179" width="80" height="100" as="geometry" />
        </mxCell>
        <mxCell id="4Q5baHg-JFtU-vZUFb9c-3" value="" style="shape=note;whiteSpace=wrap;html=1;backgroundOutline=1;darkOpacity=0.05;align=left;fillColor=#fad7ac;strokeColor=#b46504;" parent="6lcVnLO9hiHBPe1DEjGH-26" vertex="1">
          <mxGeometry x="44" y="189" width="80" height="100" as="geometry" />
        </mxCell>
        <mxCell id="4Q5baHg-JFtU-vZUFb9c-7" style="edgeStyle=orthogonalEdgeStyle;rounded=0;orthogonalLoop=1;jettySize=auto;html=1;exitX=0;exitY=0;exitDx=80;exitDy=65;exitPerimeter=0;dashed=1;strokeColor=#050505;strokeWidth=2;fontSize=10;fontColor=#FFFFFF;" parent="6lcVnLO9hiHBPe1DEjGH-26" source="4Q5baHg-JFtU-vZUFb9c-4" target="z_aUk_5v99F4OKsvYZRc-4" edge="1">
          <mxGeometry relative="1" as="geometry" />
        </mxCell>
        <mxCell id="4Q5baHg-JFtU-vZUFb9c-4" value="SC Pipeline Cache Containers" style="shape=note;whiteSpace=wrap;html=1;backgroundOutline=1;darkOpacity=0.05;align=left;fillColor=#fad7ac;strokeColor=#b46504;" parent="6lcVnLO9hiHBPe1DEjGH-26" vertex="1">
          <mxGeometry x="54" y="199" width="80" height="100" as="geometry" />
        </mxCell>
        <mxCell id="RZkui5LOCHVIBUMoWQ-c-1" value="&lt;font style=&quot;font-size: 20px;&quot;&gt;2&lt;/font&gt;" style="ellipse;whiteSpace=wrap;html=1;aspect=fixed;fillColor=#e51400;strokeColor=#B20000;fontColor=#ffffff;fontSize=16;fontStyle=1" parent="6lcVnLO9hiHBPe1DEjGH-26" vertex="1">
          <mxGeometry x="853" y="228" width="22" height="22" as="geometry" />
        </mxCell>
        <mxCell id="h6UdxWJDqXBrwPmcXUrX-29" value="&lt;span style=&quot;font-family: Helvetica; font-size: 17px; font-variant-ligatures: normal; font-variant-caps: normal; letter-spacing: normal; orphans: 2; text-indent: 0px; text-transform: none; widows: 2; word-spacing: 0px; -webkit-text-stroke-width: 0px; background-color: rgb(248, 249, 250); text-decoration-thickness: initial; text-decoration-style: initial; text-decoration-color: initial; float: none; display: inline !important;&quot;&gt;Runtime&lt;/span&gt;" style="text;whiteSpace=wrap;html=1;align=center;fontStyle=3;fontColor=#333333;fontSize=17;" parent="6lcVnLO9hiHBPe1DEjGH-26" vertex="1">
          <mxGeometry x="310" y="587" width="80" height="30" as="geometry" />
        </mxCell>
        <mxCell id="h6UdxWJDqXBrwPmcXUrX-28" value="&lt;span style=&quot;font-family: Helvetica; font-size: 17px; font-variant-ligatures: normal; font-variant-caps: normal; letter-spacing: normal; orphans: 2; text-indent: 0px; text-transform: none; widows: 2; word-spacing: 0px; -webkit-text-stroke-width: 0px; background-color: rgb(248, 249, 250); text-decoration-thickness: initial; text-decoration-style: initial; text-decoration-color: initial; float: none; display: inline !important;&quot;&gt;Offline&lt;/span&gt;" style="text;whiteSpace=wrap;html=1;align=center;fontStyle=3;fontColor=#333333;fontSize=17;" parent="1" vertex="1">
          <mxGeometry x="1054" y="686" width="80" height="30" as="geometry" />
        </mxCell>
      </root>
    </mxGraphModel>
  </diagram>
  <diagram id="TogLKLkDqAw1yhXTpeuP" name="Details">
    <mxGraphModel dx="1422" dy="1838" grid="0" gridSize="10" guides="1" tooltips="1" connect="1" arrows="1" fold="1" page="1" pageScale="1" pageWidth="850" pageHeight="1100" math="0" shadow="0">
      <root>
        <mxCell id="0" />
        <mxCell id="1" parent="0" />
        <mxCell id="WoaJ7MKDyTzOB8H5hV46-1" value="" style="group;align=right;verticalAlign=top;fontSize=13;" parent="1" vertex="1" connectable="0">
          <mxGeometry x="680" y="-10" width="940" height="620" as="geometry" />
        </mxCell>
        <mxCell id="WoaJ7MKDyTzOB8H5hV46-2" value="&lt;font style=&quot;font-size: 17px;&quot; color=&quot;#ff3333&quot;&gt;座舱OS视窗引擎&lt;/font&gt;" style="rounded=0;whiteSpace=wrap;html=1;labelBackgroundColor=none;verticalAlign=top;fillColor=#CCCCCC;fontStyle=1;strokeColor=none;align=left;" parent="WoaJ7MKDyTzOB8H5hV46-1" vertex="1">
          <mxGeometry x="340" y="-60" width="600" height="547" as="geometry" />
        </mxCell>
        <mxCell id="WoaJ7MKDyTzOB8H5hV46-3" value="HISI SoC" style="rounded=0;whiteSpace=wrap;html=1;labelBackgroundColor=none;verticalAlign=top;fillColor=#CCCCCC;fontStyle=1;strokeColor=none;align=left;spacingBottom=10;spacingRight=10;spacingLeft=10;" parent="WoaJ7MKDyTzOB8H5hV46-1" vertex="1">
          <mxGeometry x="340" y="500" width="600" height="120" as="geometry" />
        </mxCell>
        <mxCell id="WoaJ7MKDyTzOB8H5hV46-4" value="Lite DSS" style="rounded=1;whiteSpace=wrap;html=1;labelBackgroundColor=none;fontSize=12;fontColor=#000000;strokeColor=#000000;align=center;verticalAlign=middle;fontStyle=1;fillColor=#FFFFFF;" parent="WoaJ7MKDyTzOB8H5hV46-1" vertex="1">
          <mxGeometry x="380" y="520" width="120" height="30" as="geometry" />
        </mxCell>
        <mxCell id="WoaJ7MKDyTzOB8H5hV46-5" value="GPU 0" style="rounded=1;whiteSpace=wrap;html=1;labelBackgroundColor=none;fontSize=12;fontColor=#000000;strokeColor=#000000;align=center;verticalAlign=middle;fontStyle=1;fillColor=#FFFFFF;" parent="WoaJ7MKDyTzOB8H5hV46-1" vertex="1">
          <mxGeometry x="640" y="520" width="120" height="30" as="geometry" />
        </mxCell>
        <mxCell id="WoaJ7MKDyTzOB8H5hV46-6" value="Car Dashboard Displayer" style="rounded=0;whiteSpace=wrap;html=1;fontStyle=1;fillColor=#FFB366;strokeColor=none;" parent="WoaJ7MKDyTzOB8H5hV46-1" vertex="1">
          <mxGeometry x="380" y="570" width="530" height="30" as="geometry" />
        </mxCell>
        <mxCell id="WoaJ7MKDyTzOB8H5hV46-7" value="" style="endArrow=classic;html=1;fontSize=12;fontColor=#000000;strokeWidth=1;fillColor=#FFE6CC;strokeColor=#666666;" parent="WoaJ7MKDyTzOB8H5hV46-1" source="WoaJ7MKDyTzOB8H5hV46-5" target="WoaJ7MKDyTzOB8H5hV46-4" edge="1">
          <mxGeometry x="-40" width="50" height="50" as="geometry">
            <mxPoint x="220" y="640" as="sourcePoint" />
            <mxPoint x="270" y="590" as="targetPoint" />
          </mxGeometry>
        </mxCell>
        <mxCell id="WoaJ7MKDyTzOB8H5hV46-8" value="" style="endArrow=classic;html=1;fontSize=12;fontColor=#000000;strokeWidth=1;fillColor=#FFE6CC;strokeColor=#666666;" parent="WoaJ7MKDyTzOB8H5hV46-1" source="WoaJ7MKDyTzOB8H5hV46-4" edge="1">
          <mxGeometry x="-40" width="50" height="50" as="geometry">
            <mxPoint x="550" y="545" as="sourcePoint" />
            <mxPoint x="440" y="570" as="targetPoint" />
          </mxGeometry>
        </mxCell>
        <mxCell id="WoaJ7MKDyTzOB8H5hV46-9" value="Safety Critical Render" style="rounded=0;whiteSpace=wrap;html=1;fontStyle=1;fillColor=#99CCFF;verticalAlign=top;spacingTop=0;" parent="WoaJ7MKDyTzOB8H5hV46-1" vertex="1">
          <mxGeometry x="360" y="-31" width="220" height="101" as="geometry" />
        </mxCell>
        <mxCell id="2iq0LQQJaJppZpqs6qnL-7" style="edgeStyle=orthogonalEdgeStyle;rounded=0;orthogonalLoop=1;jettySize=auto;html=1;exitX=0.5;exitY=1;exitDx=0;exitDy=0;entryX=0.575;entryY=0.007;entryDx=0;entryDy=0;entryPerimeter=0;strokeColor=#050505;strokeWidth=2;fontSize=10;fontColor=#FFFFFF;" parent="WoaJ7MKDyTzOB8H5hV46-1" source="WoaJ7MKDyTzOB8H5hV46-10" target="VZPIa-u98Dw9c0J9mh5K-95" edge="1">
          <mxGeometry relative="1" as="geometry" />
        </mxCell>
        <mxCell id="WoaJ7MKDyTzOB8H5hV46-10" value="High Performance Combined Renderer" style="rounded=0;whiteSpace=wrap;html=1;fontStyle=1;fillColor=#B0E3E6;verticalAlign=top;spacingTop=0;" parent="WoaJ7MKDyTzOB8H5hV46-1" vertex="1">
          <mxGeometry x="600" y="-31" width="310" height="101" as="geometry" />
        </mxCell>
        <mxCell id="WoaJ7MKDyTzOB8H5hV46-11" value="Safety Monitor" style="rounded=0;whiteSpace=wrap;html=1;fontStyle=1;verticalAlign=top;spacingTop=0;fillColor=#FFE0DB;" parent="WoaJ7MKDyTzOB8H5hV46-1" vertex="1">
          <mxGeometry x="360" y="270" width="160" height="108" as="geometry" />
        </mxCell>
        <mxCell id="WoaJ7MKDyTzOB8H5hV46-12" value="SC Pipeline" style="rounded=0;whiteSpace=wrap;html=1;labelBackgroundColor=none;fontSize=12;fontColor=#FFFFFF;strokeColor=#000000;align=center;verticalAlign=middle;fillColor=#79A1C9;fontStyle=1" parent="WoaJ7MKDyTzOB8H5hV46-1" vertex="1">
          <mxGeometry x="380" y="-7" width="170" height="30" as="geometry" />
        </mxCell>
        <mxCell id="WoaJ7MKDyTzOB8H5hV46-14" value="Fault Correction" style="rounded=0;whiteSpace=wrap;html=1;labelBackgroundColor=none;fontSize=12;fontColor=#000000;strokeColor=#000000;align=center;verticalAlign=middle;fillColor=#FFBFD7;fontStyle=1" parent="WoaJ7MKDyTzOB8H5hV46-1" vertex="1">
          <mxGeometry x="380" y="337" width="120" height="33" as="geometry" />
        </mxCell>
        <mxCell id="WoaJ7MKDyTzOB8H5hV46-15" value="" style="endArrow=classic;html=1;fontSize=10;fontColor=#000000;strokeColor=#000000;strokeWidth=1;fillColor=#FFE6CC;" parent="WoaJ7MKDyTzOB8H5hV46-1" target="WoaJ7MKDyTzOB8H5hV46-5" edge="1">
          <mxGeometry x="-40" width="50" height="50" as="geometry">
            <mxPoint x="700" y="450" as="sourcePoint" />
            <mxPoint x="470" y="310" as="targetPoint" />
          </mxGeometry>
        </mxCell>
        <mxCell id="WoaJ7MKDyTzOB8H5hV46-16" value="" style="endArrow=classic;html=1;fontSize=10;fontColor=#000000;strokeColor=#000000;strokeWidth=1;fillColor=#FFE6CC;" parent="WoaJ7MKDyTzOB8H5hV46-1" source="WoaJ7MKDyTzOB8H5hV46-44" target="WoaJ7MKDyTzOB8H5hV46-4" edge="1">
          <mxGeometry x="-40" width="50" height="50" as="geometry">
            <mxPoint x="681.818181818182" y="460" as="sourcePoint" />
            <mxPoint x="690" y="530" as="targetPoint" />
            <Array as="points">
              <mxPoint x="660" y="490" />
              <mxPoint x="460" y="490" />
            </Array>
          </mxGeometry>
        </mxCell>
        <mxCell id="WoaJ7MKDyTzOB8H5hV46-18" value="" style="endArrow=none;dashed=1;html=1;fontSize=10;fontColor=#000000;strokeWidth=1;fillColor=#FFE6CC;strokeColor=#999999;" parent="WoaJ7MKDyTzOB8H5hV46-1" source="WoaJ7MKDyTzOB8H5hV46-5" edge="1">
          <mxGeometry x="-40" width="50" height="50" as="geometry">
            <mxPoint x="510" y="215" as="sourcePoint" />
            <mxPoint x="870" y="405" as="targetPoint" />
            <Array as="points">
              <mxPoint x="870" y="535" />
              <mxPoint x="870" y="405" />
              <mxPoint x="870" y="380" />
            </Array>
          </mxGeometry>
        </mxCell>
        <mxCell id="WoaJ7MKDyTzOB8H5hV46-23" value="" style="endArrow=classic;html=1;rounded=0;exitX=0.5;exitY=1;exitDx=0;exitDy=0;dashed=1;startArrow=none;" parent="WoaJ7MKDyTzOB8H5hV46-1" source="QJoR3vFBE8v187Vy68W8-1" target="WoaJ7MKDyTzOB8H5hV46-4" edge="1">
          <mxGeometry width="50" height="50" relative="1" as="geometry">
            <mxPoint x="10" y="480" as="sourcePoint" />
            <mxPoint x="60" y="430" as="targetPoint" />
          </mxGeometry>
        </mxCell>
        <mxCell id="2iq0LQQJaJppZpqs6qnL-1" style="edgeStyle=orthogonalEdgeStyle;rounded=0;orthogonalLoop=1;jettySize=auto;html=1;exitX=0.5;exitY=0;exitDx=0;exitDy=0;entryX=0.25;entryY=1;entryDx=0;entryDy=0;dashed=1;strokeColor=#050505;strokeWidth=2;fontSize=10;fontColor=#FFFFFF;" parent="WoaJ7MKDyTzOB8H5hV46-1" source="WoaJ7MKDyTzOB8H5hV46-24" target="WoaJ7MKDyTzOB8H5hV46-9" edge="1">
          <mxGeometry relative="1" as="geometry">
            <Array as="points">
              <mxPoint x="440" y="85" />
              <mxPoint x="415" y="85" />
            </Array>
          </mxGeometry>
        </mxCell>
        <mxCell id="2iq0LQQJaJppZpqs6qnL-4" style="edgeStyle=orthogonalEdgeStyle;rounded=0;orthogonalLoop=1;jettySize=auto;html=1;exitX=0.5;exitY=0;exitDx=0;exitDy=0;entryX=0.25;entryY=1;entryDx=0;entryDy=0;dashed=1;strokeColor=#050505;strokeWidth=2;fontSize=10;fontColor=#FFFFFF;" parent="WoaJ7MKDyTzOB8H5hV46-1" source="WoaJ7MKDyTzOB8H5hV46-24" target="WoaJ7MKDyTzOB8H5hV46-10" edge="1">
          <mxGeometry relative="1" as="geometry">
            <Array as="points">
              <mxPoint x="440" y="85" />
              <mxPoint x="678" y="85" />
            </Array>
          </mxGeometry>
        </mxCell>
        <mxCell id="WoaJ7MKDyTzOB8H5hV46-24" value="Progressive Loader" style="rounded=0;whiteSpace=wrap;html=1;fontStyle=1;fillColor=#DAE8FC;verticalAlign=top;spacingTop=0;" parent="WoaJ7MKDyTzOB8H5hV46-1" vertex="1">
          <mxGeometry x="360" y="110" width="160" height="140" as="geometry" />
        </mxCell>
        <mxCell id="WoaJ7MKDyTzOB8H5hV46-27" value="" style="edgeStyle=orthogonalEdgeStyle;rounded=0;orthogonalLoop=1;jettySize=auto;html=1;dashed=1;entryX=0;entryY=0.7;entryDx=0;entryDy=0;entryPerimeter=0;strokeWidth=2;" parent="WoaJ7MKDyTzOB8H5hV46-1" source="WoaJ7MKDyTzOB8H5hV46-28" target="WoaJ7MKDyTzOB8H5hV46-32" edge="1">
          <mxGeometry relative="1" as="geometry">
            <mxPoint x="194" y="397" as="targetPoint" />
          </mxGeometry>
        </mxCell>
        <mxCell id="obT1aPl-USjH1nNSl7As-1" style="edgeStyle=orthogonalEdgeStyle;rounded=0;orthogonalLoop=1;jettySize=auto;html=1;exitX=0.5;exitY=0;exitDx=0;exitDy=0;entryX=0;entryY=0.5;entryDx=0;entryDy=0;entryPerimeter=0;dashed=1;strokeColor=#050505;strokeWidth=2;fontSize=10;fontColor=#FFFFFF;" parent="WoaJ7MKDyTzOB8H5hV46-1" source="WoaJ7MKDyTzOB8H5hV46-28" target="lEGzL1OvWyr8I2ofxWoo-1" edge="1">
          <mxGeometry relative="1" as="geometry" />
        </mxCell>
        <mxCell id="WoaJ7MKDyTzOB8H5hV46-28" value="Auto Cluster&amp;amp; Compiling &amp;amp;&lt;br&gt;SC Pipeline Compiling" style="shape=step;perimeter=stepPerimeter;whiteSpace=wrap;html=1;fixedSize=1;fillColor=#fff2cc;strokeColor=#d6b656;" parent="WoaJ7MKDyTzOB8H5hV46-1" vertex="1">
          <mxGeometry x="89" y="270" width="98" height="80" as="geometry" />
        </mxCell>
        <mxCell id="WoaJ7MKDyTzOB8H5hV46-29" style="edgeStyle=orthogonalEdgeStyle;rounded=0;orthogonalLoop=1;jettySize=auto;html=1;exitX=1;exitY=0.5;exitDx=0;exitDy=0;dashed=1;strokeWidth=2;" parent="WoaJ7MKDyTzOB8H5hV46-1" source="WoaJ7MKDyTzOB8H5hV46-30" target="WoaJ7MKDyTzOB8H5hV46-38" edge="1">
          <mxGeometry relative="1" as="geometry" />
        </mxCell>
        <mxCell id="WoaJ7MKDyTzOB8H5hV46-30" value="" style="shape=image;html=1;verticalAlign=top;verticalLabelPosition=bottom;labelBackgroundColor=#ffffff;imageAspect=0;aspect=fixed;image=https://cdn1.iconfinder.com/data/icons/DarkGlass_Reworked/128x128/apps/blender.png" parent="WoaJ7MKDyTzOB8H5hV46-1" vertex="1">
          <mxGeometry x="97" y="435.5" width="65" height="65" as="geometry" />
        </mxCell>
        <mxCell id="WoaJ7MKDyTzOB8H5hV46-31" value="" style="group" parent="WoaJ7MKDyTzOB8H5hV46-1" vertex="1" connectable="0">
          <mxGeometry x="204" y="240" width="110" height="130" as="geometry" />
        </mxCell>
        <mxCell id="WoaJ7MKDyTzOB8H5hV46-32" value="" style="shape=note;whiteSpace=wrap;html=1;backgroundOutline=1;darkOpacity=0.05;fillColor=#e1d5e7;strokeColor=#9673a6;" parent="WoaJ7MKDyTzOB8H5hV46-31" vertex="1">
          <mxGeometry width="80" height="100" as="geometry" />
        </mxCell>
        <mxCell id="WoaJ7MKDyTzOB8H5hV46-33" value="" style="shape=note;whiteSpace=wrap;html=1;backgroundOutline=1;darkOpacity=0.05;fillColor=#e1d5e7;strokeColor=#9673a6;" parent="WoaJ7MKDyTzOB8H5hV46-31" vertex="1">
          <mxGeometry x="10" y="10" width="80" height="100" as="geometry" />
        </mxCell>
        <mxCell id="WoaJ7MKDyTzOB8H5hV46-34" value="" style="shape=note;whiteSpace=wrap;html=1;backgroundOutline=1;darkOpacity=0.05;fillColor=#e1d5e7;strokeColor=#9673a6;" parent="WoaJ7MKDyTzOB8H5hV46-31" vertex="1">
          <mxGeometry x="20" y="20" width="80" height="100" as="geometry" />
        </mxCell>
        <mxCell id="WoaJ7MKDyTzOB8H5hV46-35" value="Cluster based Runtime Binaries" style="shape=note;whiteSpace=wrap;html=1;backgroundOutline=1;darkOpacity=0.05;align=left;fillColor=#e1d5e7;strokeColor=#9673a6;" parent="WoaJ7MKDyTzOB8H5hV46-31" vertex="1">
          <mxGeometry x="30" y="30" width="80" height="100" as="geometry" />
        </mxCell>
        <mxCell id="WoaJ7MKDyTzOB8H5hV46-37" value="" style="group" parent="WoaJ7MKDyTzOB8H5hV46-1" vertex="1" connectable="0">
          <mxGeometry x="214" y="418" width="100" height="120" as="geometry" />
        </mxCell>
        <mxCell id="WoaJ7MKDyTzOB8H5hV46-38" value="" style="shape=note;whiteSpace=wrap;html=1;backgroundOutline=1;darkOpacity=0.05;fillColor=#cce5ff;strokeColor=#36393d;" parent="WoaJ7MKDyTzOB8H5hV46-37" vertex="1">
          <mxGeometry width="80" height="100" as="geometry" />
        </mxCell>
        <mxCell id="WoaJ7MKDyTzOB8H5hV46-39" value="" style="shape=note;whiteSpace=wrap;html=1;backgroundOutline=1;darkOpacity=0.05;fillColor=#cce5ff;strokeColor=#36393d;" parent="WoaJ7MKDyTzOB8H5hV46-37" vertex="1">
          <mxGeometry x="10" y="10" width="80" height="100" as="geometry" />
        </mxCell>
        <mxCell id="WoaJ7MKDyTzOB8H5hV46-40" value="Models/&lt;br&gt;Shaders/&lt;br&gt;Materials..." style="shape=note;whiteSpace=wrap;html=1;backgroundOutline=1;darkOpacity=0.05;align=left;fillColor=#cce5ff;strokeColor=#36393d;" parent="WoaJ7MKDyTzOB8H5hV46-37" vertex="1">
          <mxGeometry x="20" y="20" width="80" height="100" as="geometry" />
        </mxCell>
        <mxCell id="WoaJ7MKDyTzOB8H5hV46-41" style="edgeStyle=orthogonalEdgeStyle;rounded=0;orthogonalLoop=1;jettySize=auto;html=1;exitX=0;exitY=0;exitDx=25;exitDy=0;exitPerimeter=0;dashed=1;strokeWidth=2;" parent="WoaJ7MKDyTzOB8H5hV46-1" source="WoaJ7MKDyTzOB8H5hV46-40" target="WoaJ7MKDyTzOB8H5hV46-28" edge="1">
          <mxGeometry relative="1" as="geometry" />
        </mxCell>
        <mxCell id="WoaJ7MKDyTzOB8H5hV46-42" value="" style="endArrow=none;dashed=1;html=1;rounded=0;strokeWidth=3;strokeColor=#696969;" parent="WoaJ7MKDyTzOB8H5hV46-1" edge="1">
          <mxGeometry width="50" height="50" relative="1" as="geometry">
            <mxPoint x="329" y="610" as="sourcePoint" />
            <mxPoint x="329" y="-20" as="targetPoint" />
          </mxGeometry>
        </mxCell>
        <mxCell id="WoaJ7MKDyTzOB8H5hV46-44" value="&lt;span style=&quot;font-weight: 700; text-align: left;&quot;&gt;Safety Compositor (ASIL-B)&lt;/span&gt;" style="rounded=0;whiteSpace=wrap;html=1;labelBackgroundColor=none;fontSize=12;align=center;verticalAlign=top;fillColor=#ffcc99;strokeColor=#36393d;horizontal=1;" parent="WoaJ7MKDyTzOB8H5hV46-1" vertex="1">
          <mxGeometry x="540" y="350" width="370" height="118" as="geometry" />
        </mxCell>
        <mxCell id="WoaJ7MKDyTzOB8H5hV46-46" style="edgeStyle=orthogonalEdgeStyle;rounded=0;orthogonalLoop=1;jettySize=auto;html=1;exitX=1;exitY=0.5;exitDx=0;exitDy=0;entryX=0;entryY=0.5;entryDx=0;entryDy=0;dashed=1;" parent="WoaJ7MKDyTzOB8H5hV46-1" source="WoaJ7MKDyTzOB8H5hV46-14" target="WoaJ7MKDyTzOB8H5hV46-44" edge="1">
          <mxGeometry relative="1" as="geometry">
            <mxPoint x="560" y="445.5" as="targetPoint" />
            <Array as="points">
              <mxPoint x="510" y="354" />
              <mxPoint x="510" y="409" />
            </Array>
          </mxGeometry>
        </mxCell>
        <mxCell id="VZPIa-u98Dw9c0J9mh5K-79" value="Watchdog" style="rounded=0;whiteSpace=wrap;html=1;labelBackgroundColor=none;fontSize=12;fontColor=#000000;strokeColor=#000000;align=center;verticalAlign=middle;fillColor=#FFBFD7;fontStyle=1" parent="WoaJ7MKDyTzOB8H5hV46-1" vertex="1">
          <mxGeometry x="380" y="297.5" width="120" height="33" as="geometry" />
        </mxCell>
        <mxCell id="VZPIa-u98Dw9c0J9mh5K-80" value="Heartbeat" style="rounded=0;whiteSpace=wrap;html=1;labelBackgroundColor=none;fontSize=12;fontColor=#000000;strokeColor=#000000;align=center;verticalAlign=middle;fontStyle=1;fillColor=#FFFF66;" parent="WoaJ7MKDyTzOB8H5hV46-1" vertex="1">
          <mxGeometry x="550" y="370" width="80" height="30" as="geometry" />
        </mxCell>
        <mxCell id="VZPIa-u98Dw9c0J9mh5K-81" value="" style="group" parent="WoaJ7MKDyTzOB8H5hV46-1" vertex="1" connectable="0">
          <mxGeometry x="780" y="380" width="120" height="70" as="geometry" />
        </mxCell>
        <mxCell id="VZPIa-u98Dw9c0J9mh5K-82" value="Event Processor" style="rounded=0;whiteSpace=wrap;html=1;labelBackgroundColor=none;fontSize=12;strokeColor=#000000;align=center;verticalAlign=top;fontStyle=1;fontColor=#FFFFFF;fillColor=#CC6600;" parent="VZPIa-u98Dw9c0J9mh5K-81" vertex="1">
          <mxGeometry width="120" height="70" as="geometry" />
        </mxCell>
        <mxCell id="VZPIa-u98Dw9c0J9mh5K-83" value="" style="rounded=0;whiteSpace=wrap;html=1;labelBackgroundColor=none;fontSize=12;strokeColor=#b85450;align=center;verticalAlign=middle;fontStyle=0;fillColor=#f8cecc;" parent="VZPIa-u98Dw9c0J9mh5K-81" vertex="1">
          <mxGeometry x="34.5" y="25.454545454545453" width="60" height="25.454545454545453" as="geometry" />
        </mxCell>
        <mxCell id="VZPIa-u98Dw9c0J9mh5K-84" value="" style="rounded=0;whiteSpace=wrap;html=1;labelBackgroundColor=none;fontSize=12;strokeColor=#b85450;align=center;verticalAlign=middle;fontStyle=0;fillColor=#f8cecc;" parent="VZPIa-u98Dw9c0J9mh5K-81" vertex="1">
          <mxGeometry x="31.5" y="29.272727272727273" width="60" height="25.454545454545453" as="geometry" />
        </mxCell>
        <mxCell id="VZPIa-u98Dw9c0J9mh5K-85" value="" style="rounded=0;whiteSpace=wrap;html=1;labelBackgroundColor=none;fontSize=12;strokeColor=#b85450;align=center;verticalAlign=middle;fontStyle=0;fillColor=#f8cecc;" parent="VZPIa-u98Dw9c0J9mh5K-81" vertex="1">
          <mxGeometry x="28.5" y="33.09090909090909" width="60" height="25.454545454545453" as="geometry" />
        </mxCell>
        <mxCell id="VZPIa-u98Dw9c0J9mh5K-86" value="threads" style="rounded=0;whiteSpace=wrap;html=1;labelBackgroundColor=none;fontSize=12;strokeColor=#b85450;align=center;verticalAlign=middle;fontStyle=0;fillColor=#f8cecc;" parent="VZPIa-u98Dw9c0J9mh5K-81" vertex="1">
          <mxGeometry x="25.5" y="36.90909090909091" width="60" height="25.454545454545453" as="geometry" />
        </mxCell>
        <mxCell id="VZPIa-u98Dw9c0J9mh5K-87" style="edgeStyle=none;rounded=1;orthogonalLoop=1;jettySize=auto;html=1;exitX=1;exitY=0.5;exitDx=0;exitDy=0;entryX=0;entryY=0.25;entryDx=0;entryDy=0;fontColor=#FFFFFF;endSize=2;startSize=2;" parent="WoaJ7MKDyTzOB8H5hV46-1" source="VZPIa-u98Dw9c0J9mh5K-88" target="VZPIa-u98Dw9c0J9mh5K-82" edge="1">
          <mxGeometry relative="1" as="geometry" />
        </mxCell>
        <mxCell id="VZPIa-u98Dw9c0J9mh5K-88" value="Input Event" style="rounded=0;whiteSpace=wrap;html=1;labelBackgroundColor=none;fontSize=12;fontColor=#000000;strokeColor=#000000;align=center;verticalAlign=middle;fontStyle=1;fillColor=#FFB366;" parent="WoaJ7MKDyTzOB8H5hV46-1" vertex="1">
          <mxGeometry x="655" y="380" width="110" height="30" as="geometry" />
        </mxCell>
        <mxCell id="VZPIa-u98Dw9c0J9mh5K-89" style="edgeStyle=none;rounded=1;orthogonalLoop=1;jettySize=auto;html=1;exitX=1;exitY=0.5;exitDx=0;exitDy=0;entryX=0;entryY=0.75;entryDx=0;entryDy=0;fontColor=#FFFFFF;startArrow=classic;startFill=1;endSize=2;startSize=2;" parent="WoaJ7MKDyTzOB8H5hV46-1" source="VZPIa-u98Dw9c0J9mh5K-90" target="VZPIa-u98Dw9c0J9mh5K-82" edge="1">
          <mxGeometry relative="1" as="geometry" />
        </mxCell>
        <mxCell id="VZPIa-u98Dw9c0J9mh5K-90" value="&lt;span&gt;Window Manager&lt;/span&gt;" style="rounded=0;whiteSpace=wrap;html=1;labelBackgroundColor=none;fontSize=12;fontColor=#000000;strokeColor=#000000;align=center;verticalAlign=middle;fontStyle=1;fillColor=#FFB366;" parent="WoaJ7MKDyTzOB8H5hV46-1" vertex="1">
          <mxGeometry x="655" y="420" width="110" height="30" as="geometry" />
        </mxCell>
        <mxCell id="VZPIa-u98Dw9c0J9mh5K-91" style="edgeStyle=none;orthogonalLoop=1;jettySize=auto;html=1;exitX=0;exitY=0.75;exitDx=0;exitDy=0;entryX=0;entryY=0.25;entryDx=0;entryDy=0;fontColor=#FFFFFF;startArrow=none;startFill=0;startSize=2;endSize=2;curved=1;" parent="WoaJ7MKDyTzOB8H5hV46-1" source="VZPIa-u98Dw9c0J9mh5K-88" target="VZPIa-u98Dw9c0J9mh5K-90" edge="1">
          <mxGeometry relative="1" as="geometry">
            <Array as="points">
              <mxPoint x="640" y="425" />
            </Array>
          </mxGeometry>
        </mxCell>
        <mxCell id="VZPIa-u98Dw9c0J9mh5K-92" value="Multi-Screen&lt;br&gt;Composite" style="rounded=0;whiteSpace=wrap;html=1;labelBackgroundColor=none;fontSize=12;fontColor=#000000;strokeColor=#000000;align=center;verticalAlign=middle;fontStyle=1;fillColor=#FFB366;" parent="WoaJ7MKDyTzOB8H5hV46-1" vertex="1">
          <mxGeometry x="550" y="415" width="80" height="35" as="geometry" />
        </mxCell>
        <mxCell id="VZPIa-u98Dw9c0J9mh5K-93" style="edgeStyle=none;curved=1;orthogonalLoop=1;jettySize=auto;html=1;exitX=0;exitY=0.5;exitDx=0;exitDy=0;entryX=1;entryY=0.5;entryDx=0;entryDy=0;fontColor=#FFFFFF;startArrow=none;startFill=0;startSize=2;endSize=2;" parent="WoaJ7MKDyTzOB8H5hV46-1" source="VZPIa-u98Dw9c0J9mh5K-90" target="VZPIa-u98Dw9c0J9mh5K-92" edge="1">
          <mxGeometry relative="1" as="geometry" />
        </mxCell>
        <mxCell id="VZPIa-u98Dw9c0J9mh5K-95" value="&lt;span style=&quot;font-size: 12px; font-weight: 700; text-align: center;&quot;&gt;Unique Rendering Scheduler&lt;/span&gt;" style="rounded=0;whiteSpace=wrap;html=1;labelBackgroundColor=none;fontSize=12;align=left;verticalAlign=top;fillColor=#008a00;strokeColor=#005700;fontColor=#ffffff;" parent="WoaJ7MKDyTzOB8H5hV46-1" vertex="1">
          <mxGeometry x="540" y="90" width="370" height="203" as="geometry" />
        </mxCell>
        <mxCell id="VZPIa-u98Dw9c0J9mh5K-96" value="&lt;span style=&quot;font-weight: 700&quot;&gt;Scheduling&amp;nbsp;&lt;br&gt;Command Queue&lt;/span&gt;" style="rounded=0;whiteSpace=wrap;html=1;fillColor=#E6FFCC;" parent="WoaJ7MKDyTzOB8H5hV46-1" vertex="1">
          <mxGeometry x="620" y="111" width="120" height="30" as="geometry" />
        </mxCell>
        <mxCell id="VZPIa-u98Dw9c0J9mh5K-97" value="&lt;span style=&quot;font-weight: 700&quot;&gt;Scheduling&amp;nbsp;&lt;br&gt;Command Queue&lt;/span&gt;" style="rounded=0;whiteSpace=wrap;html=1;fillColor=#E6FFCC;" parent="WoaJ7MKDyTzOB8H5hV46-1" vertex="1">
          <mxGeometry x="782" y="111" width="120" height="30" as="geometry" />
        </mxCell>
        <mxCell id="VZPIa-u98Dw9c0J9mh5K-98" value="&lt;span style=&quot;font-family: helvetica;&quot;&gt;Scheduling Algorithm&lt;/span&gt;" style="rounded=0;whiteSpace=wrap;html=1;strokeColor=#000000;fontStyle=1;labelBackgroundColor=none;fillColor=#FF9933;verticalAlign=top;fontColor=#FFFFFF;" parent="WoaJ7MKDyTzOB8H5hV46-1" vertex="1">
          <mxGeometry x="620" y="156" width="282" height="70" as="geometry" />
        </mxCell>
        <mxCell id="VZPIa-u98Dw9c0J9mh5K-99" value="Execution Time&amp;nbsp;&lt;br style=&quot;font-size: 12px;&quot;&gt;Monitor" style="rounded=0;whiteSpace=wrap;html=1;strokeColor=#000000;fontStyle=1;labelBackgroundColor=none;fillColor=#E6FFCC;fontSize=12;" parent="WoaJ7MKDyTzOB8H5hV46-1" vertex="1">
          <mxGeometry x="620" y="241" width="102" height="40" as="geometry" />
        </mxCell>
        <mxCell id="VZPIa-u98Dw9c0J9mh5K-100" value="Execution Time&amp;nbsp;&lt;br style=&quot;font-size: 10px;&quot;&gt;Prediction" style="rounded=0;whiteSpace=wrap;html=1;strokeColor=#000000;fontStyle=1;labelBackgroundColor=none;fillColor=#CCCC00;fontSize=10;" parent="WoaJ7MKDyTzOB8H5hV46-1" vertex="1">
          <mxGeometry x="632" y="186" width="80" height="30" as="geometry" />
        </mxCell>
        <mxCell id="VZPIa-u98Dw9c0J9mh5K-101" value="APP Priority&amp;nbsp;&lt;br style=&quot;font-size: 10px;&quot;&gt;Configuration" style="rounded=0;whiteSpace=wrap;html=1;strokeColor=#000000;fontStyle=1;labelBackgroundColor=none;fillColor=#CCCC00;fontSize=10;" parent="WoaJ7MKDyTzOB8H5hV46-1" vertex="1">
          <mxGeometry x="812" y="186" width="80" height="30" as="geometry" />
        </mxCell>
        <mxCell id="VZPIa-u98Dw9c0J9mh5K-102" value="Frame Rate&amp;nbsp;&lt;br style=&quot;font-size: 10px;&quot;&gt;Detection" style="rounded=0;whiteSpace=wrap;html=1;strokeColor=#000000;fontStyle=1;labelBackgroundColor=none;fillColor=#CCCC00;fontSize=10;" parent="WoaJ7MKDyTzOB8H5hV46-1" vertex="1">
          <mxGeometry x="722" y="186" width="80" height="30" as="geometry" />
        </mxCell>
        <mxCell id="VZPIa-u98Dw9c0J9mh5K-103" value="Command Group" style="rounded=0;whiteSpace=wrap;html=1;strokeColor=#000000;fontStyle=1;labelBackgroundColor=none;fillColor=#E6FFCC;" parent="WoaJ7MKDyTzOB8H5hV46-1" vertex="1">
          <mxGeometry x="742" y="241" width="160" height="40" as="geometry" />
        </mxCell>
        <mxCell id="VZPIa-u98Dw9c0J9mh5K-104" value="" style="endArrow=classic;html=1;fontSize=10;fontColor=#FFFFFF;strokeColor=#000000;strokeWidth=1;fillColor=#FFE6CC;" parent="WoaJ7MKDyTzOB8H5hV46-1" source="VZPIa-u98Dw9c0J9mh5K-96" edge="1">
          <mxGeometry x="-760" y="-99" width="50" height="50" as="geometry">
            <mxPoint x="-860" y="181" as="sourcePoint" />
            <mxPoint x="680" y="161" as="targetPoint" />
          </mxGeometry>
        </mxCell>
        <mxCell id="VZPIa-u98Dw9c0J9mh5K-105" value="" style="endArrow=classic;html=1;fontSize=10;fontColor=#FFFFFF;strokeColor=#000000;strokeWidth=1;fillColor=#FFE6CC;" parent="WoaJ7MKDyTzOB8H5hV46-1" source="VZPIa-u98Dw9c0J9mh5K-97" edge="1">
          <mxGeometry x="-778" y="-99" width="50" height="50" as="geometry">
            <mxPoint x="-108" y="111" as="sourcePoint" />
            <mxPoint x="841.9999999999995" y="161" as="targetPoint" />
          </mxGeometry>
        </mxCell>
        <mxCell id="VZPIa-u98Dw9c0J9mh5K-106" value="" style="endArrow=classic;html=1;fontSize=10;fontColor=#FFFFFF;strokeColor=#000000;strokeWidth=1;fillColor=#FFE6CC;" parent="WoaJ7MKDyTzOB8H5hV46-1" target="VZPIa-u98Dw9c0J9mh5K-103" edge="1">
          <mxGeometry x="-778" y="-99" width="50" height="50" as="geometry">
            <mxPoint x="820" y="227" as="sourcePoint" />
            <mxPoint x="72" y="131" as="targetPoint" />
          </mxGeometry>
        </mxCell>
        <mxCell id="QJoR3vFBE8v187Vy68W8-1" value="IC APP" style="rounded=0;whiteSpace=wrap;html=1;fontStyle=1;verticalAlign=middle;spacingTop=0;fillColor=#FFFF66;" parent="WoaJ7MKDyTzOB8H5hV46-1" vertex="1">
          <mxGeometry x="390" y="393.18" width="100" height="26.82" as="geometry" />
        </mxCell>
        <mxCell id="QJoR3vFBE8v187Vy68W8-2" value="" style="endArrow=none;html=1;rounded=0;exitX=0.5;exitY=1;exitDx=0;exitDy=0;dashed=1;" parent="WoaJ7MKDyTzOB8H5hV46-1" source="WoaJ7MKDyTzOB8H5hV46-14" target="QJoR3vFBE8v187Vy68W8-1" edge="1">
          <mxGeometry width="50" height="50" relative="1" as="geometry">
            <mxPoint x="1120" y="360" as="sourcePoint" />
            <mxPoint x="1120" y="510" as="targetPoint" />
          </mxGeometry>
        </mxCell>
        <mxCell id="QJoR3vFBE8v187Vy68W8-3" value="" style="group;fontSize=10;" parent="WoaJ7MKDyTzOB8H5hV46-1" vertex="1" connectable="0">
          <mxGeometry x="380" y="440" width="50" height="47" as="geometry" />
        </mxCell>
        <mxCell id="QJoR3vFBE8v187Vy68W8-4" value="fault bitmap" style="text;html=1;strokeColor=none;fillColor=none;align=center;verticalAlign=middle;whiteSpace=wrap;rounded=0;labelBackgroundColor=none;fontColor=#000000;fontSize=9;" parent="QJoR3vFBE8v187Vy68W8-3" vertex="1">
          <mxGeometry y="31.333333333333332" width="50" height="15.666666666666666" as="geometry" />
        </mxCell>
        <mxCell id="QJoR3vFBE8v187Vy68W8-5" value="Fault Occured!" style="html=1;strokeColor=none;labelPosition=center;verticalLabelPosition=middle;verticalAlign=top;align=center;fontSize=9;outlineConnect=0;spacingTop=-6;fontColor=#FFFFFF;shape=mxgraph.sitemap.warning;labelBackgroundColor=none;fontStyle=1;fillColor=#FF9999;" parent="QJoR3vFBE8v187Vy68W8-3" vertex="1">
          <mxGeometry width="48.97857142857143" height="31.333333333333332" as="geometry" />
        </mxCell>
        <mxCell id="QJoR3vFBE8v187Vy68W8-10" value="持续检测出错" style="text;html=1;strokeColor=none;fillColor=none;align=center;verticalAlign=middle;whiteSpace=wrap;rounded=0;labelBackgroundColor=none;fontSize=9;fontColor=#000000;horizontal=0;" parent="WoaJ7MKDyTzOB8H5hV46-1" vertex="1">
          <mxGeometry x="440" y="423.5" width="20" height="80" as="geometry" />
        </mxCell>
        <mxCell id="QJoR3vFBE8v187Vy68W8-14" value="Progressive loading" style="rounded=0;whiteSpace=wrap;html=1;labelBackgroundColor=none;fontSize=12;fontColor=#000000;strokeColor=#000000;align=center;verticalAlign=middle;fillColor=#99CCFF;fontStyle=1" parent="WoaJ7MKDyTzOB8H5hV46-1" vertex="1">
          <mxGeometry x="380" y="147" width="120" height="33" as="geometry" />
        </mxCell>
        <mxCell id="QJoR3vFBE8v187Vy68W8-15" value="Cluster mapping" style="rounded=0;whiteSpace=wrap;html=1;labelBackgroundColor=none;fontSize=12;fontColor=#000000;strokeColor=#000000;align=center;verticalAlign=middle;fillColor=#99CCFF;fontStyle=1" parent="WoaJ7MKDyTzOB8H5hV46-1" vertex="1">
          <mxGeometry x="380" y="187" width="120" height="33" as="geometry" />
        </mxCell>
        <mxCell id="kZITqRR3nE_zGoM0zK8C-1" value="Adaptive&lt;br&gt;FPS&lt;br&gt;Scheduler" style="rounded=0;whiteSpace=wrap;html=1;strokeColor=#000000;fontStyle=1;labelBackgroundColor=none;fillColor=#E6FFCC;" parent="WoaJ7MKDyTzOB8H5hV46-1" vertex="1">
          <mxGeometry x="550" y="133" width="60" height="150" as="geometry" />
        </mxCell>
        <mxCell id="t5JG7CF5mwE_E3dmEgB5-1" style="edgeStyle=orthogonalEdgeStyle;rounded=0;orthogonalLoop=1;jettySize=auto;html=1;exitX=0;exitY=0;exitDx=80;exitDy=65;exitPerimeter=0;entryX=0;entryY=0.5;entryDx=0;entryDy=0;dashed=1;strokeColor=#050505;strokeWidth=2;fontSize=10;fontColor=#000000;" parent="WoaJ7MKDyTzOB8H5hV46-1" source="WoaJ7MKDyTzOB8H5hV46-35" target="WoaJ7MKDyTzOB8H5hV46-24" edge="1">
          <mxGeometry relative="1" as="geometry" />
        </mxCell>
        <mxCell id="WoaJ7MKDyTzOB8H5hV46-50" value="&lt;span style=&quot;font-family: Helvetica; font-size: 17px; font-variant-ligatures: normal; font-variant-caps: normal; letter-spacing: normal; orphans: 2; text-indent: 0px; text-transform: none; widows: 2; word-spacing: 0px; -webkit-text-stroke-width: 0px; text-decoration-thickness: initial; text-decoration-style: initial; text-decoration-color: initial; float: none; display: inline !important;&quot;&gt;Runtime&lt;/span&gt;" style="text;whiteSpace=wrap;html=1;align=center;fontStyle=3;fontColor=#333333;fontSize=17;fillColor=none;labelBackgroundColor=none;" parent="WoaJ7MKDyTzOB8H5hV46-1" vertex="1">
          <mxGeometry x="335" y="590" width="80" height="30" as="geometry" />
        </mxCell>
        <mxCell id="WoaJ7MKDyTzOB8H5hV46-51" value="&lt;span style=&quot;font-family: Helvetica; font-size: 17px; font-variant-ligatures: normal; font-variant-caps: normal; letter-spacing: normal; orphans: 2; text-indent: 0px; text-transform: none; widows: 2; word-spacing: 0px; -webkit-text-stroke-width: 0px; text-decoration-thickness: initial; text-decoration-style: initial; text-decoration-color: initial; float: none; display: inline !important;&quot;&gt;Offline&lt;/span&gt;" style="text;whiteSpace=wrap;html=1;align=center;fontStyle=3;fontColor=#333333;fontSize=17;labelBackgroundColor=none;" parent="WoaJ7MKDyTzOB8H5hV46-1" vertex="1">
          <mxGeometry x="259" y="590" width="80" height="30" as="geometry" />
        </mxCell>
        <mxCell id="zFwKGZZATFRvi5zF2ery-1" value="OpenGL/Vulkan(SC)、DRM、..." style="rounded=0;whiteSpace=wrap;html=1;fillColor=#666666;strokeColor=none;fontStyle=1;fontColor=#FFFFFF;verticalAlign=top;" parent="WoaJ7MKDyTzOB8H5hV46-1" vertex="1">
          <mxGeometry x="540" y="300" width="370" height="40" as="geometry" />
        </mxCell>
        <mxCell id="zFwKGZZATFRvi5zF2ery-2" value="Render Buffer" style="rounded=0;whiteSpace=wrap;html=1;fontStyle=1;fontSize=10;fillColor=#FFE6CC;" parent="WoaJ7MKDyTzOB8H5hV46-1" vertex="1">
          <mxGeometry x="605" y="325" width="70" height="15" as="geometry" />
        </mxCell>
        <mxCell id="zFwKGZZATFRvi5zF2ery-3" value="Render Buffer" style="rounded=0;whiteSpace=wrap;html=1;fontStyle=1;fontSize=10;fillColor=#FFE6CC;" parent="WoaJ7MKDyTzOB8H5hV46-1" vertex="1">
          <mxGeometry x="785" y="325" width="70" height="15" as="geometry" />
        </mxCell>
        <mxCell id="zFwKGZZATFRvi5zF2ery-4" value="" style="endArrow=classic;html=1;fontSize=10;fontColor=#FFFFFF;strokeColor=#000000;strokeWidth=1;fillColor=#FFE6CC;" parent="WoaJ7MKDyTzOB8H5hV46-1" source="zFwKGZZATFRvi5zF2ery-2" edge="1">
          <mxGeometry x="-800" y="-105" width="50" height="50" as="geometry">
            <mxPoint x="-410" y="365" as="sourcePoint" />
            <mxPoint x="640" y="354.99999999999955" as="targetPoint" />
          </mxGeometry>
        </mxCell>
        <mxCell id="zFwKGZZATFRvi5zF2ery-5" value="" style="endArrow=classic;html=1;fontSize=10;fontColor=#FFFFFF;strokeColor=#000000;strokeWidth=1;fillColor=#FFE6CC;" parent="WoaJ7MKDyTzOB8H5hV46-1" source="zFwKGZZATFRvi5zF2ery-3" edge="1">
          <mxGeometry x="-800" y="-105" width="50" height="50" as="geometry">
            <mxPoint x="40" y="300" as="sourcePoint" />
            <mxPoint x="820" y="354.99999999999955" as="targetPoint" />
          </mxGeometry>
        </mxCell>
        <mxCell id="zFwKGZZATFRvi5zF2ery-6" value="" style="endArrow=classic;html=1;fontSize=10;fontColor=#FFFFFF;strokeColor=#000000;strokeWidth=1;fillColor=#FFE6CC;" parent="WoaJ7MKDyTzOB8H5hV46-1" edge="1">
          <mxGeometry x="-788" y="-105" width="50" height="50" as="geometry">
            <mxPoint x="812" y="275" as="sourcePoint" />
            <mxPoint x="812" y="299.99999999999955" as="targetPoint" />
          </mxGeometry>
        </mxCell>
        <mxCell id="zFwKGZZATFRvi5zF2ery-7" value="dispatch command group" style="text;html=1;strokeColor=none;fillColor=none;align=center;verticalAlign=middle;whiteSpace=wrap;rounded=0;fontSize=10;" parent="WoaJ7MKDyTzOB8H5hV46-1" vertex="1">
          <mxGeometry x="812" y="275" width="80" height="25" as="geometry" />
        </mxCell>
        <mxCell id="zFwKGZZATFRvi5zF2ery-8" value="" style="endArrow=classic;html=1;fontSize=10;fontColor=#FFFFFF;strokeWidth=1;fillColor=#FFE6CC;startArrow=classic;startFill=1;strokeColor=#4D4D4D;" parent="WoaJ7MKDyTzOB8H5hV46-1" edge="1">
          <mxGeometry x="-788" y="-105" width="50" height="50" as="geometry">
            <mxPoint x="662" y="275" as="sourcePoint" />
            <mxPoint x="662" y="299.99999999999955" as="targetPoint" />
          </mxGeometry>
        </mxCell>
        <mxCell id="zFwKGZZATFRvi5zF2ery-9" value="query profile" style="text;html=1;strokeColor=none;fillColor=none;align=center;verticalAlign=middle;whiteSpace=wrap;rounded=0;fontSize=10;labelBackgroundColor=none;fontColor=#4D4D4D;" parent="WoaJ7MKDyTzOB8H5hV46-1" vertex="1">
          <mxGeometry x="662" y="275" width="70" height="25" as="geometry" />
        </mxCell>
        <mxCell id="IcD4Xm78ZQsWtB77PCbq-1" value="Progressive Rendering" style="rounded=0;whiteSpace=wrap;html=1;labelBackgroundColor=none;fontSize=12;fontColor=#FFFFFF;strokeColor=#000000;align=center;verticalAlign=middle;fillColor=#79A1C9;fontStyle=1" parent="WoaJ7MKDyTzOB8H5hV46-1" vertex="1">
          <mxGeometry x="380" y="33" width="170" height="30" as="geometry" />
        </mxCell>
        <mxCell id="IcD4Xm78ZQsWtB77PCbq-2" value="Progressive Rendering" style="rounded=0;whiteSpace=wrap;html=1;labelBackgroundColor=none;fontSize=12;fontColor=#000000;strokeColor=#000000;align=center;verticalAlign=middle;fillColor=#CCFFCC;fontStyle=1" parent="WoaJ7MKDyTzOB8H5hV46-1" vertex="1">
          <mxGeometry x="615" y="-7" width="140" height="30" as="geometry" />
        </mxCell>
        <mxCell id="IcD4Xm78ZQsWtB77PCbq-3" value="动静分离渲染" style="rounded=0;whiteSpace=wrap;html=1;labelBackgroundColor=none;fontSize=12;fontColor=#000000;strokeColor=#000000;align=center;verticalAlign=middle;fillColor=#CCFFCC;fontStyle=1" parent="WoaJ7MKDyTzOB8H5hV46-1" vertex="1">
          <mxGeometry x="615" y="33" width="140" height="30" as="geometry" />
        </mxCell>
        <mxCell id="IcD4Xm78ZQsWtB77PCbq-4" value="Standby Rendering" style="rounded=0;whiteSpace=wrap;html=1;labelBackgroundColor=none;fontSize=12;fontColor=#000000;strokeColor=#000000;align=center;verticalAlign=middle;fillColor=#CCFFCC;fontStyle=1" parent="WoaJ7MKDyTzOB8H5hV46-1" vertex="1">
          <mxGeometry x="765" y="-7" width="140" height="30" as="geometry" />
        </mxCell>
        <mxCell id="IcD4Xm78ZQsWtB77PCbq-5" value="分帧采样" style="rounded=0;whiteSpace=wrap;html=1;labelBackgroundColor=none;fontSize=12;fontColor=#000000;strokeColor=#000000;align=center;verticalAlign=middle;fillColor=#CCFFCC;fontStyle=1" parent="WoaJ7MKDyTzOB8H5hV46-1" vertex="1">
          <mxGeometry x="765" y="33" width="140" height="30" as="geometry" />
        </mxCell>
        <mxCell id="lEGzL1OvWyr8I2ofxWoo-1" value="" style="shape=note;whiteSpace=wrap;html=1;backgroundOutline=1;darkOpacity=0.05;align=left;fillColor=#fad7ac;strokeColor=#b46504;" parent="WoaJ7MKDyTzOB8H5hV46-1" vertex="1">
          <mxGeometry x="204" y="84" width="80" height="100" as="geometry" />
        </mxCell>
        <mxCell id="2iq0LQQJaJppZpqs6qnL-6" value="" style="endArrow=classic;html=1;rounded=0;strokeColor=#050505;strokeWidth=2;fontSize=10;fontColor=#FFFFFF;entryX=0.105;entryY=-0.01;entryDx=0;entryDy=0;entryPerimeter=0;" parent="WoaJ7MKDyTzOB8H5hV46-1" source="WoaJ7MKDyTzOB8H5hV46-9" target="VZPIa-u98Dw9c0J9mh5K-95" edge="1">
          <mxGeometry width="50" height="50" relative="1" as="geometry">
            <mxPoint x="230" y="740" as="sourcePoint" />
            <mxPoint x="280" y="690" as="targetPoint" />
          </mxGeometry>
        </mxCell>
        <mxCell id="yuhKP2gWV-VDIojMeOo5-1" value="软纠错" style="text;html=1;strokeColor=none;fillColor=none;align=center;verticalAlign=middle;whiteSpace=wrap;rounded=0;labelBackgroundColor=none;fontSize=11;fontColor=#000000;horizontal=0;" parent="WoaJ7MKDyTzOB8H5hV46-1" vertex="1">
          <mxGeometry x="510" y="363" width="20" height="50" as="geometry" />
        </mxCell>
        <mxCell id="BbN0HfGv5ysFnCYA_65a-1" value="&lt;font style=&quot;font-size: 20px;&quot;&gt;1&lt;/font&gt;" style="ellipse;whiteSpace=wrap;html=1;aspect=fixed;fillColor=#e51400;strokeColor=#B20000;fontColor=#ffffff;fontSize=16;fontStyle=1" parent="WoaJ7MKDyTzOB8H5hV46-1" vertex="1">
          <mxGeometry x="498" y="125" width="22" height="22" as="geometry" />
        </mxCell>
        <mxCell id="BbN0HfGv5ysFnCYA_65a-2" value="&lt;font style=&quot;font-size: 20px;&quot;&gt;2&lt;/font&gt;" style="ellipse;whiteSpace=wrap;html=1;aspect=fixed;fillColor=#e51400;strokeColor=#B20000;fontColor=#ffffff;fontSize=16;fontStyle=1" parent="WoaJ7MKDyTzOB8H5hV46-1" vertex="1">
          <mxGeometry x="883" y="-31" width="22" height="22" as="geometry" />
        </mxCell>
        <mxCell id="BbN0HfGv5ysFnCYA_65a-3" value="&lt;font style=&quot;font-size: 20px;&quot;&gt;3&lt;/font&gt;" style="ellipse;whiteSpace=wrap;html=1;aspect=fixed;fillColor=#e51400;strokeColor=#B20000;fontColor=#ffffff;fontSize=16;fontStyle=1" parent="WoaJ7MKDyTzOB8H5hV46-1" vertex="1">
          <mxGeometry x="878" y="89" width="22" height="22" as="geometry" />
        </mxCell>
        <mxCell id="BbN0HfGv5ysFnCYA_65a-5" value="&lt;font style=&quot;font-size: 20px;&quot;&gt;4&lt;/font&gt;" style="ellipse;whiteSpace=wrap;html=1;aspect=fixed;fillColor=#e51400;strokeColor=#B20000;fontColor=#ffffff;fontSize=16;fontStyle=1" parent="WoaJ7MKDyTzOB8H5hV46-1" vertex="1">
          <mxGeometry x="540" y="-3" width="22" height="22" as="geometry" />
        </mxCell>
        <mxCell id="lEGzL1OvWyr8I2ofxWoo-2" value="" style="shape=note;whiteSpace=wrap;html=1;backgroundOutline=1;darkOpacity=0.05;align=left;fillColor=#fad7ac;strokeColor=#b46504;" parent="1" vertex="1">
          <mxGeometry x="894" y="84" width="80" height="100" as="geometry" />
        </mxCell>
        <mxCell id="lEGzL1OvWyr8I2ofxWoo-3" value="" style="shape=note;whiteSpace=wrap;html=1;backgroundOutline=1;darkOpacity=0.05;align=left;fillColor=#fad7ac;strokeColor=#b46504;" parent="1" vertex="1">
          <mxGeometry x="904" y="94" width="80" height="100" as="geometry" />
        </mxCell>
        <mxCell id="obT1aPl-USjH1nNSl7As-2" style="edgeStyle=orthogonalEdgeStyle;rounded=0;orthogonalLoop=1;jettySize=auto;html=1;exitX=0;exitY=0;exitDx=80;exitDy=65;exitPerimeter=0;entryX=0;entryY=0.5;entryDx=0;entryDy=0;dashed=1;strokeColor=#050505;strokeWidth=2;fontSize=10;fontColor=#FFFFFF;" parent="1" source="lEGzL1OvWyr8I2ofxWoo-4" target="WoaJ7MKDyTzOB8H5hV46-24" edge="1">
          <mxGeometry relative="1" as="geometry" />
        </mxCell>
        <mxCell id="lEGzL1OvWyr8I2ofxWoo-4" value="SC Pipeline Cache Containers" style="shape=note;whiteSpace=wrap;html=1;backgroundOutline=1;darkOpacity=0.05;align=left;fillColor=#fad7ac;strokeColor=#b46504;" parent="1" vertex="1">
          <mxGeometry x="914" y="104" width="80" height="100" as="geometry" />
        </mxCell>
        <mxCell id="2iq0LQQJaJppZpqs6qnL-5" value="" style="endArrow=classic;html=1;rounded=0;dashed=1;strokeColor=#050505;strokeWidth=1;fontSize=10;fontColor=#FFFFFF;" parent="1" edge="1">
          <mxGeometry width="50" height="50" relative="1" as="geometry">
            <mxPoint x="1450" y="340" as="sourcePoint" />
            <mxPoint x="1500" y="290" as="targetPoint" />
          </mxGeometry>
        </mxCell>
      </root>
    </mxGraphModel>
  </diagram>
</mxfile>
